<svg width="410" height="410" viewBox="0 0 410 410" fill="none" xmlns="http://www.w3.org/2000/svg">
<path d="M334.361 46.3516C327.339 40.5967 319.949 35.3086 312.236 30.5193L298.783 52.2599C305.557 56.4474 312.046 61.0785 318.209 66.1228L334.361 46.3516Z" fill="#0057FF"/>
<path d="M371.526 86.0486C366.237 78.6504 360.47 71.6055 354.261 64.9602L335.59 82.455C341.03 88.2667 346.079 94.4316 350.706 100.909L371.526 86.0486Z" fill="#0057FF"/>
<path d="M385.869 109.24L363.259 121.21C409.394 208.669 375.895 316.968 288.436 363.103C200.977 409.238 92.6773 375.739 46.5424 288.28C0.407488 200.821 33.9057 92.5216 121.365 46.3859C147.102 32.8092 175.76 25.7107 204.858 25.7035C229.975 25.634 254.821 30.8949 277.753 41.1394L288.189 17.7874C184.978 -28.234 64.0005 18.1271 17.9774 121.338C-28.044 224.55 18.3163 345.528 121.528 391.55C224.74 437.572 345.718 391.211 391.74 288C403.423 261.798 409.466 233.433 409.477 204.745C409.468 171.467 401.366 138.689 385.869 109.24Z" fill="#0057FF"/>
<path d="M192.006 132.538C182.304 121.536 168.345 115.229 153.676 115.219H89.7324V294.26H153.676C181.927 294.24 204.814 271.322 204.795 243.07C204.785 228.401 198.478 214.442 187.476 204.739C208.664 186.052 210.693 153.726 192.006 132.538ZM153.676 268.682H115.31V217.528H153.676C167.802 217.528 179.253 228.979 179.253 243.105C179.253 257.231 167.802 268.682 153.676 268.682ZM153.676 191.951H115.31V140.796H153.676C167.802 140.796 179.253 152.248 179.253 166.373C179.253 180.499 167.802 191.951 153.676 191.951Z" fill="#0057FF"/>
<path d="M345.486 230.321C347.119 196.819 321.425 168.27 287.937 166.378C254.448 168.27 228.754 196.819 230.388 230.321C228.754 263.824 254.448 292.373 287.937 294.265C302.542 294.145 316.485 288.154 326.622 277.639L308.462 259.735C303.094 265.345 295.701 268.57 287.937 268.687C273.332 267.783 261.065 257.373 257.794 243.11H345.486V230.321ZM257.794 217.533C261.065 203.27 273.332 192.86 287.937 191.956C302.542 192.86 314.809 203.27 318.079 217.533H257.794Z" fill="#0057FF"/>
<path d="M319.925 115.219H255.982V140.796H319.925V115.219Z" fill="#0057FF"/>
</svg>
