<svg width="411" height="410" viewBox="0 0 411 410" fill="none" xmlns="http://www.w3.org/2000/svg">
<path d="M205.482 0C92.7864 0 0.813477 91.9809 0.813477 204.669C0.813477 317.364 92.7944 409.337 205.482 409.337C318.178 409.337 410.151 317.356 410.151 204.669C410.151 91.9729 318.17 0 205.482 0ZM344.305 89.1507C369.856 119.803 385.454 159.018 386.126 201.79C354.099 194.299 318.529 193.796 282.305 200.399C272.879 202.118 263.453 204.301 254.083 206.923C250.965 198.441 247.655 190.03 244.137 181.699C240.548 173.201 236.758 164.846 232.792 156.611C275.957 140.126 322.727 115.582 344.305 89.1507ZM205.482 23.9846C252.508 23.9846 295.384 42.045 327.564 71.586C315.012 88.703 279.243 113.623 221.855 135.113C201.82 97.8092 177.796 63.5272 150.038 32.699C167.514 27.0466 186.15 23.9846 205.482 23.9846ZM126.293 42.2928C154.603 72.6174 178.955 106.484 199.014 143.068C139.309 162.392 78.8593 170.275 29.1553 165.182C41.2595 111.097 77.6761 66.0936 126.293 42.2928ZM24.7981 204.669C24.7981 199.36 25.0459 194.107 25.4936 188.919C36.4626 190.078 47.9032 190.662 59.7276 190.662C106.362 190.662 158.752 181.691 210.199 164.654C218.05 180.724 225.109 197.257 231.337 214.198C211.278 221.41 191.755 230.58 173.423 241.493C128.475 268.252 95.5926 302.678 81.9534 336.4C46.7999 303.413 24.7981 256.563 24.7981 204.669ZM205.482 385.353C166.875 385.353 131.058 373.176 101.661 352.462C110.775 321.665 141.603 288.351 185.695 262.104C201.229 252.846 219.393 244.123 239.164 237.032C253.179 281.083 261.766 327.582 264.492 375.447C245.992 381.859 226.141 385.353 205.482 385.353ZM287.885 365.445C284.559 318.819 275.877 273.424 261.942 229.82C300.797 219.139 343.953 215.558 384.879 226.175C377.635 286.944 340.124 338.559 287.885 365.445Z" fill="#EA4C89"/>
</svg>
